# xmcd
#
# Track frame offsets:
#	150
#	12894
#	25779
#	39847
#	51323
#	63106
#	77633
#	86382
#	100274
#	112036
#	122904
#	148218
#	159165
#	170616
#	182164
#	193968
#	208694
#	222417
#	236027
#	250856
#	267694
#
# Disc length: 3765 seconds
#
# Revision: 1
# Processed by: cddbd v1.5.2PL0 Copyright (c) Steve Scherf et al.
# Submitted via: EZCDAudioConverter 2.1.7.1
#
DISCID=2e0eb315
DTITLE=V/A - Eccentric Soul: The Forte Label
DYEAR=2013
DGENRE=Soul
TTITLE0=Gene Williams - Don't Let Your Love Fade Away
TTITLE1=Lee Harris - I'm Gonna Get Your Thing
TTITLE2=Tear Drops - I'm Gonna Get You
TTITLE3=Louis Chachere - The Hen (Part 1)
TTITLE4=The Fantasticks - Cry Night And Day
TTITLE5=Marva W. Taylor - I've Lived The Life
TTITLE6=Fabulous Rhythm Makers - Mini, Mini Afro Twist
TTITLE7=Tony Ashley and The Delicates - I'll Never Be Satisfied
TTITLE8=The Rayons - You Confuse Me Baby
TTITLE9=Four Darlings - Baby Your Love Is Amazing
TTITLE10=Lee Harris - Lookin' Good
TTITLE11=Marva Whitney - Daddy Don't Know About Sugar Bear
TTITLE12=Gene Williams - Whatever You Do (Do It Good)
TTITLE13=Everyday People - Is It Really That Bad
TTITLE14=The Rayons - Baby Be Good
TTITLE15=Tony Ashley and The Delicates - All Along I've Loved You
TTITLE16=Lee Harris - I've Got To Have Somebody's Love
TTITLE17=Everyday People - Super Black
TTITLE18=James Whitney - With Fun In My Life
TTITLE19=Sharon Revoal - Reaching For Our Star
TTITLE20=Marva W. Taylor - Nothing I'd Rather Be (Than Your Weakness)
EXTD=
EXTT0=
EXTT1=
EXTT2=
EXTT3=
EXTT4=
EXTT5=
EXTT6=
EXTT7=
EXTT8=
EXTT9=
EXTT10=
EXTT11=
EXTT12=
EXTT13=
EXTT14=
EXTT15=
EXTT16=
EXTT17=
EXTT18=
EXTT19=
EXTT20=
PLAYORDER=
